<?xml version="1.1" encoding="UTF-8"?>
<svg xmlns="http://www.w3.org/2000/svg"
    xmlns:latexdraw="http://latexdraw.sourceforge.net/namespaces/latexdraw"
    version="1.1" baseProfile="full">
    <g>
        <g latexdraw:type="rectangle" id="id1460606448">
            <rect x="319.2100895963234" y="389.0295784968824"
                width="472.7455426583533" height="57.34319283229428"
                latexdraw:borderPos="outer" stroke-width="2.0"
                stroke="black" fill="url(#pattern1460606448)"/>
        </g>
        <g latexdraw:type="rectangle" id="id1343391068">
            <rect x="823.6272286708237" y="389.0295784968824"
                width="1.0" height="1.0" latexdraw:borderPos="outer"
                stroke-width="2.0" stroke="black" fill="none"/>
        </g>
        <g latexdraw:type="rectangle" id="id1059423080">
            <rect x="823.6272286708237" y="389.0295784968824"
                width="1.0" height="1.0" latexdraw:borderPos="outer"
                stroke-width="2.0" stroke="black" fill="none"/>
        </g>
        <g latexdraw:type="rectangle" id="id1772666938">
            <rect x="823.6272286708237" y="389.0295784968824"
                width="235.37277132917632" height="72.17899104036792"
                latexdraw:borderPos="outer" stroke-width="2.0"
                stroke="black" fill="none"/>
        </g>
        <g latexdraw:type="rectangle" id="id773791232">
            <rect x="957.1494125434857" y="270.34319283229416"
                width="101.85058745651429" height="116.68638566458822"
                latexdraw:borderPos="outer" stroke-width="2.0"
                stroke="black" fill="none"/>
        </g>
        <g latexdraw:type="rectangle" id="id134346736" transform="rotate(-12.43227983190718) translate(-136.32990702160396 193.07364597773812)">
            <rect x="851.6254859451204" y="493.20074325815943"
                width="205.70117491302824" height="72.17899104036763"
                latexdraw:borderPos="outer" stroke-width="2.0"
                stroke="black" fill="none"/>
        </g>
        <g latexdraw:type="circle" id="id1051563546">
            <circle cx="496.2396680932059" cy="269.34319283229416"
                r="58.34319283229428" latexdraw:borderPos="outer"
                stroke-width="2.0" stroke="black" fill="url(#pattern1051563546)"/>
        </g>
        <g latexdraw:type="circle" id="id61687326">
            <circle cx="674.2692465900883" cy="269.34319283229416"
                r="58.343192832293994" latexdraw:borderPos="outer"
                stroke-width="2.0" stroke="black" fill="url(#pattern61687326)"/>
        </g>
        <g latexdraw:type="circle" id="id1433291653">
            <circle cx="852.298825086971" cy="269.34319283229416"
                r="58.34319283229428" latexdraw:borderPos="outer"
                stroke-width="2.0" stroke="black" fill="url(#pattern1433291653)"/>
        </g>
        <g latexdraw:type="rectangle" id="id731032169" transform="rotate(-12.087101950242166) translate(-129.61646852060824 195.74223626075798)">
            <rect x="982.8120628217301" y="500.4260706582737"
                width="12.83579820807347" height="27.671596416147167"
                latexdraw:borderPos="outer" stroke-width="2.0"
                stroke="black" fill="url(#pattern731032169)"/>
        </g>
        <g latexdraw:type="rectangle" id="id61350447" transform="rotate(-12.087101950242166) translate(-130.60317965923252 186.4224570153766)">
            <rect x="939.2913793361339" y="509.7458499036559"
                width="12.83579820807347" height="27.671596416146485"
                latexdraw:borderPos="outer" stroke-width="2.0"
                stroke="black" fill="url(#pattern61350447)"/>
        </g>
        <g latexdraw:type="rectangle" id="id1259029651" transform="rotate(-12.087101950242166) translate(-133.80187642947033 171.04539113003136)">
            <rect x="853.4344563659317" y="510.28700520802647"
                width="42.50739462422075" height="72.17899104036735"
                latexdraw:borderPos="outer" stroke-width="2.0"
                stroke="black" fill="none"/>
        </g>
        <g latexdraw:type="text" id="id869564913" fill="black"
            latexdraw:position="bl" transform="rotate(-12.087101950242166) translate(-143.41625648618003 186.88981608707581)">
            <text x="954.3229893512788" y="583.8596233078621">Bath House</text>
        </g>
        <g latexdraw:type="rectangle" id="id1494396622" transform="rotate(-11.771726040242374) translate(-124.78932525435289 200.1169429835848)">
            <rect x="1026.5646639127472" y="491.3468827176656"
                width="12.835798208075403" height="27.67159641614728"
                latexdraw:borderPos="outer" stroke-width="2.0"
                stroke="black" fill="url(#pattern1494396622)"/>
        </g>
        <g latexdraw:type="text" id="id176531006" fill="black"
            latexdraw:position="bl" transform="rotate(-11.771726040242374) translate(-132.14511755555554 192.18768638923052)">
            <text x="998.2027434196689" y="544.8236637528373">2</text>
        </g>
        <g latexdraw:type="text" id="id2079765624" fill="black"
            latexdraw:position="bl" transform="rotate(-11.771726040242374) translate(-133.08118893471146 183.107600106041)">
            <text x="954.6314201746045" y="553.9037500360275">3</text>
        </g>
        <g latexdraw:type="text" id="id971217464" fill="black"
            latexdraw:position="bl" transform="rotate(-11.771726040242374) translate(-131.20904617639985 201.26777267242005)">
            <text x="1041.7740666647335" y="535.7435774696472">1</text>
        </g>
        <g latexdraw:type="circle" id="id395028119">
            <circle cx="1022.9105044798162" cy="425.1190740170663"
                r="21.253697312110035" latexdraw:borderPos="outer"
                stroke-width="2.0" stroke="black" fill="url(#pattern395028119)"/>
        </g>
        <g latexdraw:type="circle" id="id1143023949">
            <circle cx="963.5673116475225" cy="425.1190740170663"
                r="21.253697312110205" latexdraw:borderPos="outer"
                stroke-width="2.0" stroke="black" fill="url(#pattern1143023949)"/>
        </g>
        <g latexdraw:type="circle" id="id725873684">
            <circle cx="911.6420179192647" cy="432.5369731211031"
                r="13.835798208073697" latexdraw:borderPos="outer"
                stroke-width="2.0" stroke="black" fill="url(#pattern725873684)"/>
        </g>
        <g latexdraw:type="circle" id="id998456075">
            <circle cx="859.7167241910073" cy="425.1190740170663"
                r="21.25369731211083" latexdraw:borderPos="outer"
                stroke-width="2.0" stroke="black" fill="url(#pattern998456075)"/>
        </g>
        <g latexdraw:type="text" id="id41499599" fill="black" latexdraw:position="bl">
            <text x="837.4630268788965" y="487.0443677453238">Fingerling Tanks</text>
        </g>
        <g latexdraw:type="text" id="id305091831" fill="black" latexdraw:position="bl">
            <text x="950.9852107515592" y="253.85058745651486">Pump House</text>
        </g>
        <g latexdraw:type="text" id="id1650488263" fill="black" latexdraw:position="bl">
            <text x="827.4630268788965" y="353.5221838726619">Pond 1</text>
        </g>
        <g latexdraw:type="text" id="id708829040" fill="black" latexdraw:position="bl">
            <text x="639.4334483820148" y="353.5221838726619">Pond 2</text>
        </g>
        <g latexdraw:type="text" id="id116539118" fill="black" latexdraw:position="bl">
            <text x="471.4038698851323" y="353.5221838726619">Pond 3</text>
        </g>
        <g latexdraw:type="text" id="id1830537149" fill="black" latexdraw:position="bl">
            <text x="654.5976501739412" y="199.34319283229416">5.6m</text>
        </g>
        <g latexdraw:type="rectangle" id="id1723983086">
            <rect x="764.2840358385293" y="448.37277132917666"
                width="27.671596416147395" height="27.671596416147167"
                latexdraw:borderPos="outer" stroke-width="2.0"
                stroke="black" fill="none"/>
        </g>
        <g latexdraw:type="rectangle" id="id308688972">
            <rect x="779.1198340466026" y="448.37277132917666"
                width="265.0443677453236" height="12.83579820807364"
                latexdraw:borderPos="outer" stroke-width="2.0"
                stroke="black" fill="none"/>
        </g>
        <g latexdraw:type="rectangle" id="id1224492486">
            <rect x="660.4334483820148" y="389.0295784968824"
                width="131.5221838726619" height="57.34319283229428"
                latexdraw:borderPos="outer" stroke-width="2.0"
                stroke="black" fill="none"/>
        </g>
        <g latexdraw:type="rectangle" id="id123267283">
            <rect x="526.9112645093533" y="389.0295784968824"
                width="131.52218387266157" height="57.34319283229428"
                latexdraw:borderPos="outer" stroke-width="2.0"
                stroke="black" fill="none"/>
        </g>
        <g latexdraw:type="rectangle" id="id360125531">
            <rect x="408.2248788447645" y="389.0295784968824"
                width="116.68638566458878" height="57.34319283229428"
                latexdraw:borderPos="outer" stroke-width="2.0"
                stroke="black" fill="none"/>
        </g>
        <g latexdraw:type="rectangle" id="id153668804">
            <rect x="378.5532824286174" y="448.37277132917666"
                width="383.7307534099119" height="12.83579820807364"
                latexdraw:borderPos="outer" stroke-width="2.0"
                stroke="black" fill="none"/>
        </g>
        <g latexdraw:type="text" id="id451763478" fill="black" latexdraw:position="bl">
            <text x="679.1050447981618" y="487.70117491302943">Raceway 1</text>
        </g>
        <g latexdraw:type="text" id="id918187508" fill="black" latexdraw:position="bl">
            <text x="545.5828609255002" y="487.70117491302943">Raceway 2</text>
        </g>
        <g latexdraw:type="text" id="id1217071226" fill="black" latexdraw:position="bl">
            <text x="426.89647526091164" y="487.70117491302943">Raceway 3</text>
        </g>
        <g latexdraw:type="text" id="id1335787283" fill="black" latexdraw:position="bl">
            <text x="830.0" y="200.0">5.6m</text>
        </g>
        <g latexdraw:type="text" id="id2114196821" fill="black" latexdraw:position="bl">
            <text x="480.0" y="200.0">5.6m</text>
        </g>
        <g latexdraw:type="polygon" id="id274328583">
            <polygon
                points="1070.0,160.0 90.0,160.0 90.0,480.0 160.0,480.0 160.0,620.0 1070.0,620.0 1070.0,610.0 1070.0,610.0 1070.0,610.0 1070.0,600.0 "
                stroke-width="2.0" stroke="black" fill="none" latexdraw:rotationAngle="0.0"/>
        </g>
        <g latexdraw:type="rectangle" id="id1925666024">
            <rect x="151.0" y="511.0" width="8.0" height="78.0"
                latexdraw:borderPos="outer" stroke-width="2.0"
                stroke="black" fill="url(#pattern1925666024)"/>
        </g>
        <g latexdraw:type="rectangle" id="id169523607">
            <rect x="81.0" y="241.0" width="8.0" height="58.0"
                latexdraw:borderPos="outer" stroke-width="2.0"
                stroke="black" fill="url(#pattern169523607)"/>
        </g>
        <g latexdraw:type="circle" id="id829947780">
            <circle cx="170.0" cy="210.0" r="29.0"
                latexdraw:borderPos="outer" stroke-width="2.0"
                stroke="#333333" fill="url(#pattern829947780)"/>
        </g>
        <g latexdraw:type="circle" id="id941783789">
            <circle cx="270.0" cy="210.0" r="29.0"
                latexdraw:borderPos="outer" stroke-width="2.0"
                stroke="#333333" fill="url(#pattern941783789)"/>
        </g>
        <g latexdraw:type="circle" id="id443175147">
            <circle cx="170.0" cy="330.0" r="29.0"
                latexdraw:borderPos="outer" stroke-width="2.0"
                stroke="#333333" fill="url(#pattern443175147)"/>
        </g>
        <g latexdraw:type="circle" id="id1225144581">
            <circle cx="270.0" cy="330.0" r="29.0"
                latexdraw:borderPos="outer" stroke-width="2.0"
                stroke="#333333" fill="url(#pattern1225144581)"/>
        </g>
        <g latexdraw:type="joinedLines" id="id622551470">
            <polyline points="90.0,370.0 90.0,370.0 " stroke-width="0.1"
                stroke="#3333ff" latexdraw:rotationAngle="0.0"/>
        </g>
        <g latexdraw:type="joinedLines" id="id199729814">
            <polyline
                points="90.0,370.0 80.0,380.0 80.0,460.0 90.0,470.0 "
                stroke-width="1.0" stroke="#333333" fill="none" latexdraw:rotationAngle="0.0"/>
        </g>
        <g latexdraw:type="joinedLines" id="id1523958639">
            <polyline
                points="0.0,370.0 10.0,380.0 10.0,460.0 0.0,470.0 "
                stroke-width="1.0" stroke="#333333" fill="none" latexdraw:rotationAngle="0.0"/>
        </g>
        <g latexdraw:type="polygon" id="id863587867">
            <polygon
                points="320.0,390.0 280.0,390.0 260.0,380.0 230.0,390.0 190.0,390.0 160.0,380.0 130.0,390.0 110.0,400.0 90.0,400.0 90.0,430.0 90.0,450.0 90.0,460.0 120.0,460.0 140.0,470.0 190.0,460.0 230.0,450.0 260.0,450.0 320.0,440.0 320.0,420.0 "
                stroke-width="1.0" stroke="#333333"
                fill="url(#pattern863587867)" latexdraw:rotationAngle="0.0"/>
        </g>
    </g>
    <defs>
        <pattern latexdraw:type="vlines" latexdraw:rotationAngle="0.0"
            latexdraw:size="7.055555555555555"
            patternUnits="userSpaceOnUse" id="pattern1460606448" x="0"
            y="0" width="792" height="447">
            <g stroke="#3333ff" stroke-width="1.4111111111111112" stroke-dasharray="none">
                <path d="M 318.2100895963234 388.0295784968824 L 318.2100895963234 447.37277132917666 M 326.67675626299007 388.0295784968824 L 326.67675626299007 447.37277132917666 M 335.1434229296567 388.0295784968824 L 335.1434229296567 447.37277132917666 M 343.61008959632335 388.0295784968824 L 343.61008959632335 447.37277132917666 M 352.07675626299 388.0295784968824 L 352.07675626299 447.37277132917666 M 360.54342292965663 388.0295784968824 L 360.54342292965663 447.37277132917666 M 369.01008959632327 388.0295784968824 L 369.01008959632327 447.37277132917666 M 377.4767562629899 388.0295784968824 L 377.4767562629899 447.37277132917666 M 385.94342292965655 388.0295784968824 L 385.94342292965655 447.37277132917666 M 394.4100895963232 388.0295784968824 L 394.4100895963232 447.37277132917666 M 402.87675626298983 388.0295784968824 L 402.87675626298983 447.37277132917666 M 411.34342292965647 388.0295784968824 L 411.34342292965647 447.37277132917666 M 419.8100895963231 388.0295784968824 L 419.8100895963231 447.37277132917666 M 428.27675626298975 388.0295784968824 L 428.27675626298975 447.37277132917666 M 436.7434229296564 388.0295784968824 L 436.7434229296564 447.37277132917666 M 445.21008959632303 388.0295784968824 L 445.21008959632303 447.37277132917666 M 453.67675626298967 388.0295784968824 L 453.67675626298967 447.37277132917666 M 462.1434229296563 388.0295784968824 L 462.1434229296563 447.37277132917666 M 470.61008959632295 388.0295784968824 L 470.61008959632295 447.37277132917666 M 479.0767562629896 388.0295784968824 L 479.0767562629896 447.37277132917666 M 487.54342292965623 388.0295784968824 L 487.54342292965623 447.37277132917666 M 496.01008959632287 388.0295784968824 L 496.01008959632287 447.37277132917666 M 504.4767562629895 388.0295784968824 L 504.4767562629895 447.37277132917666 M 512.9434229296562 388.0295784968824 L 512.9434229296562 447.37277132917666 M 521.4100895963229 388.0295784968824 L 521.4100895963229 447.37277132917666 M 529.8767562629896 388.0295784968824 L 529.8767562629896 447.37277132917666 M 538.3434229296563 388.0295784968824 L 538.3434229296563 447.37277132917666 M 546.810089596323 388.0295784968824 L 546.810089596323 447.37277132917666 M 555.2767562629897 388.0295784968824 L 555.2767562629897 447.37277132917666 M 563.7434229296564 388.0295784968824 L 563.7434229296564 447.37277132917666 M 572.2100895963231 388.0295784968824 L 572.2100895963231 447.37277132917666 M 580.6767562629898 388.0295784968824 L 580.6767562629898 447.37277132917666 M 589.1434229296565 388.0295784968824 L 589.1434229296565 447.37277132917666 M 597.6100895963232 388.0295784968824 L 597.6100895963232 447.37277132917666 M 606.0767562629899 388.0295784968824 L 606.0767562629899 447.37277132917666 M 614.5434229296566 388.0295784968824 L 614.5434229296566 447.37277132917666 M 623.0100895963233 388.0295784968824 L 623.0100895963233 447.37277132917666 M 631.47675626299 388.0295784968824 L 631.47675626299 447.37277132917666 M 639.9434229296567 388.0295784968824 L 639.9434229296567 447.37277132917666 M 648.4100895963234 388.0295784968824 L 648.4100895963234 447.37277132917666 M 656.87675626299 388.0295784968824 L 656.87675626299 447.37277132917666 M 665.3434229296568 388.0295784968824 L 665.3434229296568 447.37277132917666 M 673.8100895963235 388.0295784968824 L 673.8100895963235 447.37277132917666 M 682.2767562629901 388.0295784968824 L 682.2767562629901 447.37277132917666 M 690.7434229296568 388.0295784968824 L 690.7434229296568 447.37277132917666 M 699.2100895963235 388.0295784968824 L 699.2100895963235 447.37277132917666 M 707.6767562629902 388.0295784968824 L 707.6767562629902 447.37277132917666 M 716.1434229296569 388.0295784968824 L 716.1434229296569 447.37277132917666 M 724.6100895963236 388.0295784968824 L 724.6100895963236 447.37277132917666 M 733.0767562629903 388.0295784968824 L 733.0767562629903 447.37277132917666 M 741.543422929657 388.0295784968824 L 741.543422929657 447.37277132917666 M 750.0100895963237 388.0295784968824 L 750.0100895963237 447.37277132917666 M 758.4767562629904 388.0295784968824 L 758.4767562629904 447.37277132917666 M 766.9434229296571 388.0295784968824 L 766.9434229296571 447.37277132917666 M 775.4100895963238 388.0295784968824 L 775.4100895963238 447.37277132917666 M 783.8767562629905 388.0295784968824 L 783.8767562629905 447.37277132917666 M 792.3434229296572 388.0295784968824 L 792.3434229296572 447.37277132917666 "/>
            </g>
        </pattern>
        <pattern latexdraw:type="vlines" latexdraw:rotationAngle="0.0"
            latexdraw:size="7.055555555555555"
            patternUnits="userSpaceOnUse" id="pattern1051563546" x="0"
            y="0" width="555" height="328">
            <g stroke="#3333ff" stroke-width="1.4111111111111112" stroke-dasharray="none">
                <path d="M 436.89647526091164 210.0 L 436.89647526091164 328.68638566458833 M 445.3631419275783 210.0 L 445.3631419275783 328.68638566458833 M 453.8298085942449 210.0 L 453.8298085942449 328.68638566458833 M 462.29647526091156 210.0 L 462.29647526091156 328.68638566458833 M 470.7631419275782 210.0 L 470.7631419275782 328.68638566458833 M 479.22980859424484 210.0 L 479.22980859424484 328.68638566458833 M 487.6964752609115 210.0 L 487.6964752609115 328.68638566458833 M 496.1631419275781 210.0 L 496.1631419275781 328.68638566458833 M 504.62980859424476 210.0 L 504.62980859424476 328.68638566458833 M 513.0964752609115 210.0 L 513.0964752609115 328.68638566458833 M 521.5631419275782 210.0 L 521.5631419275782 328.68638566458833 M 530.0298085942449 210.0 L 530.0298085942449 328.68638566458833 M 538.4964752609116 210.0 L 538.4964752609116 328.68638566458833 M 546.9631419275782 210.0 L 546.9631419275782 328.68638566458833 M 555.429808594245 210.0 L 555.429808594245 328.68638566458833 "/>
            </g>
        </pattern>
        <pattern latexdraw:type="vlines" latexdraw:rotationAngle="0.0"
            latexdraw:size="7.055555555555555"
            patternUnits="userSpaceOnUse" id="pattern61687326" x="0"
            y="0" width="733" height="328">
            <g stroke="#3333ff" stroke-width="1.4111111111111112" stroke-dasharray="none">
                <path d="M 614.9260537577943 210.0 L 614.9260537577943 328.68638566458833 M 623.392720424461 210.0 L 623.392720424461 328.68638566458833 M 631.8593870911277 210.0 L 631.8593870911277 328.68638566458833 M 640.3260537577944 210.0 L 640.3260537577944 328.68638566458833 M 648.7927204244611 210.0 L 648.7927204244611 328.68638566458833 M 657.2593870911278 210.0 L 657.2593870911278 328.68638566458833 M 665.7260537577945 210.0 L 665.7260537577945 328.68638566458833 M 674.1927204244612 210.0 L 674.1927204244612 328.68638566458833 M 682.6593870911279 210.0 L 682.6593870911279 328.68638566458833 M 691.1260537577946 210.0 L 691.1260537577946 328.68638566458833 M 699.5927204244613 210.0 L 699.5927204244613 328.68638566458833 M 708.059387091128 210.0 L 708.059387091128 328.68638566458833 M 716.5260537577947 210.0 L 716.5260537577947 328.68638566458833 M 724.9927204244614 210.0 L 724.9927204244614 328.68638566458833 M 733.4593870911281 210.0 L 733.4593870911281 328.68638566458833 "/>
            </g>
        </pattern>
        <pattern latexdraw:type="vlines" latexdraw:rotationAngle="0.0"
            latexdraw:size="7.055555555555555"
            patternUnits="userSpaceOnUse" id="pattern1433291653" x="0"
            y="0" width="911" height="328">
            <g stroke="blue" stroke-width="1.4111111111111112" stroke-dasharray="none">
                <path d="M 792.9556322546767 210.0 L 792.9556322546767 328.68638566458833 M 801.4222989213434 210.0 L 801.4222989213434 328.68638566458833 M 809.8889655880101 210.0 L 809.8889655880101 328.68638566458833 M 818.3556322546768 210.0 L 818.3556322546768 328.68638566458833 M 826.8222989213435 210.0 L 826.8222989213435 328.68638566458833 M 835.2889655880102 210.0 L 835.2889655880102 328.68638566458833 M 843.7556322546769 210.0 L 843.7556322546769 328.68638566458833 M 852.2222989213436 210.0 L 852.2222989213436 328.68638566458833 M 860.6889655880103 210.0 L 860.6889655880103 328.68638566458833 M 869.155632254677 210.0 L 869.155632254677 328.68638566458833 M 877.6222989213437 210.0 L 877.6222989213437 328.68638566458833 M 886.0889655880104 210.0 L 886.0889655880104 328.68638566458833 M 894.5556322546771 210.0 L 894.5556322546771 328.68638566458833 M 903.0222989213438 210.0 L 903.0222989213438 328.68638566458833 M 911.4889655880105 210.0 L 911.4889655880105 328.68638566458833 "/>
            </g>
        </pattern>
        <pattern latexdraw:type="hlines*" latexdraw:rotationAngle="0.0"
            latexdraw:size="7.055555555555555"
            patternUnits="userSpaceOnUse" id="pattern731032169" x="0"
            y="0" width="996" height="529">
            <rect width="996" height="529" fill="blue" stroke="none"/>
            <g stroke="black" stroke-width="1.4111111111111112" stroke-dasharray="none">
                <path d="M 981.8120628217301 499.4260706582737 L 996.6478610298036 499.4260706582737 M 981.8120628217301 507.89273732494036 L 996.6478610298036 507.89273732494036 M 981.8120628217301 516.359403991607 L 996.6478610298036 516.359403991607 M 981.8120628217301 524.8260706582737 L 996.6478610298036 524.8260706582737 "/>
            </g>
        </pattern>
        <pattern latexdraw:type="hlines*" latexdraw:rotationAngle="0.0"
            latexdraw:size="7.055555555555555"
            patternUnits="userSpaceOnUse" id="pattern61350447" x="0"
            y="0" width="953" height="538">
            <rect width="953" height="538" fill="blue" stroke="none"/>
            <g stroke="black" stroke-width="1.4111111111111112" stroke-dasharray="none">
                <path d="M 938.2913793361339 508.7458499036559 L 953.1271775442074 508.7458499036559 M 938.2913793361339 517.2125165703226 L 953.1271775442074 517.2125165703226 M 938.2913793361339 525.6791832369893 L 953.1271775442074 525.6791832369893 M 938.2913793361339 534.145849903656 L 953.1271775442074 534.145849903656 "/>
            </g>
        </pattern>
        <pattern latexdraw:type="hlines*" latexdraw:rotationAngle="0.0"
            latexdraw:size="7.055555555555555"
            patternUnits="userSpaceOnUse" id="pattern1494396622" x="0"
            y="0" width="1040" height="520">
            <rect width="1040" height="520" fill="blue" stroke="none"/>
            <g stroke="black" stroke-width="1.4111111111111112" stroke-dasharray="none">
                <path d="M 1025.5646639127472 490.3468827176656 L 1040.4004621208226 490.3468827176656 M 1025.5646639127472 498.81354938433225 L 1040.4004621208226 498.81354938433225 M 1025.5646639127472 507.2802160509989 L 1040.4004621208226 507.2802160509989 M 1025.5646639127472 515.7468827176656 L 1040.4004621208226 515.7468827176656 "/>
            </g>
        </pattern>
        <pattern latexdraw:type="vlines" latexdraw:rotationAngle="0.0"
            latexdraw:size="7.055555555555555"
            patternUnits="userSpaceOnUse" id="pattern395028119" x="0"
            y="0" width="1045" height="447">
            <g stroke="blue" stroke-width="1.4111111111111112" stroke-dasharray="none">
                <path d="M 1000.6568071677061 402.86537670495596 L 1000.6568071677061 447.37277132917666 M 1009.1234738343728 402.86537670495596 L 1009.1234738343728 447.37277132917666 M 1017.5901405010395 402.86537670495596 L 1017.5901405010395 447.37277132917666 M 1026.0568071677062 402.86537670495596 L 1026.0568071677062 447.37277132917666 M 1034.523473834373 402.86537670495596 L 1034.523473834373 447.37277132917666 M 1042.9901405010396 402.86537670495596 L 1042.9901405010396 447.37277132917666 "/>
            </g>
        </pattern>
        <pattern latexdraw:type="vlines" latexdraw:rotationAngle="0.0"
            latexdraw:size="7.055555555555555"
            patternUnits="userSpaceOnUse" id="pattern1143023949" x="0"
            y="0" width="985" height="447">
            <g stroke="#3333ff" stroke-width="1.4111111111111112" stroke-dasharray="none">
                <path d="M 941.3136143354122 402.86537670495596 L 941.3136143354122 447.37277132917666 M 949.7802810020789 402.86537670495596 L 949.7802810020789 447.37277132917666 M 958.2469476687456 402.86537670495596 L 958.2469476687456 447.37277132917666 M 966.7136143354123 402.86537670495596 L 966.7136143354123 447.37277132917666 M 975.180281002079 402.86537670495596 L 975.180281002079 447.37277132917666 M 983.6469476687457 402.86537670495596 L 983.6469476687457 447.37277132917666 "/>
            </g>
        </pattern>
        <pattern latexdraw:type="vlines" latexdraw:rotationAngle="0.0"
            latexdraw:size="7.055555555555555"
            patternUnits="userSpaceOnUse" id="pattern725873684" x="0"
            y="0" width="926" height="447">
            <g stroke="#3333ff" stroke-width="1.4111111111111112" stroke-dasharray="none">
                <path d="M 896.806219711191 417.70117491302943 L 896.806219711191 447.37277132917666 M 905.2728863778577 417.70117491302943 L 905.2728863778577 447.37277132917666 M 913.7395530445244 417.70117491302943 L 913.7395530445244 447.37277132917666 M 922.2062197111911 417.70117491302943 L 922.2062197111911 447.37277132917666 "/>
            </g>
        </pattern>
        <pattern latexdraw:type="vlines" latexdraw:rotationAngle="0.0"
            latexdraw:size="7.055555555555555"
            patternUnits="userSpaceOnUse" id="pattern998456075" x="0"
            y="0" width="881" height="447">
            <g stroke="#3333ff" stroke-width="1.4111111111111112" stroke-dasharray="none">
                <path d="M 837.4630268788965 402.86537670495596 L 837.4630268788965 447.37277132917666 M 845.9296935455632 402.86537670495596 L 845.9296935455632 447.37277132917666 M 854.3963602122299 402.86537670495596 L 854.3963602122299 447.37277132917666 M 862.8630268788966 402.86537670495596 L 862.8630268788966 447.37277132917666 M 871.3296935455633 402.86537670495596 L 871.3296935455633 447.37277132917666 M 879.79636021223 402.86537670495596 L 879.79636021223 447.37277132917666 "/>
            </g>
        </pattern>
        <pattern latexdraw:type="crosshatch"
            latexdraw:rotationAngle="0.0"
            latexdraw:size="7.055555555555555"
            patternUnits="userSpaceOnUse" id="pattern1925666024" x="0"
            y="0" width="160" height="590">
            <g stroke="black" stroke-width="1.4111111111111112" stroke-dasharray="none">
                <path d="M 150.0 510.0 L 150.0 590.0 M 158.46666666666667 510.0 L 158.46666666666667 590.0 M 150.0 510.0 L 160.0 510.0 M 150.0 518.4666666666667 L 160.0 518.4666666666667 M 150.0 526.9333333333334 L 160.0 526.9333333333334 M 150.0 535.4000000000001 L 160.0 535.4000000000001 M 150.0 543.8666666666668 L 160.0 543.8666666666668 M 150.0 552.3333333333335 L 160.0 552.3333333333335 M 150.0 560.8000000000002 L 160.0 560.8000000000002 M 150.0 569.2666666666669 L 160.0 569.2666666666669 M 150.0 577.7333333333336 L 160.0 577.7333333333336 M 150.0 586.2000000000003 L 160.0 586.2000000000003 "/>
            </g>
        </pattern>
        <pattern latexdraw:type="crosshatch"
            latexdraw:rotationAngle="0.0"
            latexdraw:size="7.055555555555555"
            patternUnits="userSpaceOnUse" id="pattern169523607" x="0"
            y="0" width="90" height="300">
            <g stroke="#333333" stroke-width="1.4111111111111112" stroke-dasharray="none">
                <path d="M 80.0 240.0 L 80.0 300.0 M 88.46666666666667 240.0 L 88.46666666666667 300.0 M 80.0 240.0 L 90.0 240.0 M 80.0 248.46666666666667 L 90.0 248.46666666666667 M 80.0 256.93333333333334 L 90.0 256.93333333333334 M 80.0 265.4 L 90.0 265.4 M 80.0 273.8666666666666 L 90.0 273.8666666666666 M 80.0 282.33333333333326 L 90.0 282.33333333333326 M 80.0 290.7999999999999 L 90.0 290.7999999999999 M 80.0 299.26666666666654 L 90.0 299.26666666666654 "/>
            </g>
        </pattern>
        <pattern latexdraw:type="vlines"
            latexdraw:rotationAngle="0.017453292519943295"
            latexdraw:size="7.055555555555555"
            patternUnits="userSpaceOnUse" id="pattern829947780" x="0"
            y="0" width="200" height="240">
            <g stroke="blue" stroke-width="1.4111111111111112" stroke-dasharray="none">
                <path d="M 140.0 665.1288959543915 L 148.4679563774384 180.0 M 140.0 1150.257791908783 L 156.93591275487682 180.0 M 140.0 1635.3866878631745 L 165.40386913231524 180.0 M 140.0 2120.515583817566 L 173.87182550975365 180.0 M 140.0 2605.644479771958 L 182.33978188719206 180.0 M 140.0 3090.7733757263495 L 190.80773826463047 180.0 M 140.0 3575.9022716807413 L 199.27569464206888 180.0 M 140.0 4061.031167635133 L 207.7436510195073 180.0 "/>
            </g>
        </pattern>
        <pattern latexdraw:type="vlines"
            latexdraw:rotationAngle="0.017453292519943295"
            latexdraw:size="7.055555555555555"
            patternUnits="userSpaceOnUse" id="pattern941783789" x="0"
            y="0" width="300" height="240">
            <g stroke="blue" stroke-width="1.4111111111111112" stroke-dasharray="none">
                <path d="M 240.0 665.1288959543915 L 248.4679563774384 180.0 M 240.0 1150.257791908783 L 256.9359127548768 180.0 M 240.0 1635.3866878631745 L 265.40386913231526 180.0 M 240.0 2120.515583817566 L 273.8718255097537 180.0 M 240.0 2605.644479771958 L 282.33978188719215 180.0 M 240.0 3090.7733757263495 L 290.8077382646306 180.0 M 240.0 3575.9022716807413 L 299.275694642069 180.0 M 240.0 4061.031167635133 L 307.74365101950747 180.0 "/>
            </g>
        </pattern>
        <pattern latexdraw:type="vlines"
            latexdraw:rotationAngle="0.017453292519943295"
            latexdraw:size="7.055555555555555"
            patternUnits="userSpaceOnUse" id="pattern443175147" x="0"
            y="0" width="200" height="360">
            <g stroke="blue" stroke-width="1.4111111111111112" stroke-dasharray="none">
                <path d="M 140.0 785.1288959543915 L 148.4679563774384 300.0 M 140.0 1270.257791908783 L 156.93591275487682 300.0 M 140.0 1755.3866878631745 L 165.40386913231524 300.0 M 140.0 2240.515583817566 L 173.87182550975365 300.0 M 140.0 2725.644479771958 L 182.33978188719206 300.0 M 140.0 3210.7733757263495 L 190.80773826463047 300.0 M 140.0 3695.9022716807413 L 199.27569464206888 300.0 M 140.0 4181.031167635133 L 207.7436510195073 300.0 "/>
            </g>
        </pattern>
        <pattern latexdraw:type="vlines"
            latexdraw:rotationAngle="0.017453292519943295"
            latexdraw:size="7.055555555555555"
            patternUnits="userSpaceOnUse" id="pattern1225144581" x="0"
            y="0" width="300" height="360">
            <g stroke="blue" stroke-width="1.4111111111111112" stroke-dasharray="none">
                <path d="M 240.0 785.1288959543915 L 248.4679563774384 300.0 M 240.0 1270.257791908783 L 256.9359127548768 300.0 M 240.0 1755.3866878631745 L 265.40386913231526 300.0 M 240.0 2240.515583817566 L 273.8718255097537 300.0 M 240.0 2725.644479771958 L 282.33978188719215 300.0 M 240.0 3210.7733757263495 L 290.8077382646306 300.0 M 240.0 3695.9022716807413 L 299.275694642069 300.0 M 240.0 4181.031167635133 L 307.74365101950747 300.0 "/>
            </g>
        </pattern>
        <pattern latexdraw:type="vlines"
            latexdraw:rotationAngle="0.017453292519943295"
            latexdraw:size="7.055555555555555"
            patternUnits="userSpaceOnUse" id="pattern863587867" x="0"
            y="0" width="320" height="470">
            <g stroke="blue" stroke-width="1.4111111111111112" stroke-dasharray="none">
                <path d="M 90.0 865.1288959543915 L 98.46795637743841 380.0 M 90.0 1350.257791908783 L 106.93591275487682 380.0 M 90.0 1835.3866878631745 L 115.40386913231524 380.0 M 90.0 2320.515583817566 L 123.87182550975365 380.0 M 90.0 2805.644479771958 L 132.33978188719206 380.0 M 90.0 3290.7733757263495 L 140.80773826463047 380.0 M 90.0 3775.9022716807413 L 149.27569464206888 380.0 M 90.0 4261.031167635133 L 157.7436510195073 380.0 M 90.0 4746.160063589525 L 166.2116073969457 380.0 M 90.0 5231.2889595439165 L 174.67956377438412 380.0 M 90.0 5716.417855498308 L 183.14752015182253 380.0 M 90.0 6201.5467514527 L 191.61547652926095 380.0 M 90.0 6686.675647407092 L 200.08343290669936 380.0 M 90.0 7171.804543361483 L 208.55138928413777 380.0 M 90.0 7656.933439315875 L 217.01934566157618 380.0 M 90.0 8142.062335270267 L 225.4873020390146 380.0 M 90.0 8627.191231224659 L 233.955258416453 380.0 M 90.0 9112.32012717905 L 242.42321479389142 380.0 M 90.0 9597.44902313344 L 250.89117117132983 380.0 M 90.0 10082.577919087831 L 259.35912754876824 380.0 M 90.0 10567.706815042222 L 267.8270839262067 380.0 M 90.0 11052.835710996613 L 276.2950403036451 380.0 M 90.0 11537.964606951004 L 284.76299668108356 380.0 M 90.0 12023.093502905394 L 293.230953058522 380.0 M 90.0 12508.222398859785 L 301.69890943596045 380.0 M 90.0 12993.351294814176 L 310.1668658133989 380.0 M 90.0 13478.480190768567 L 318.6348221908373 380.0 M 90.0 13963.609086722958 L 327.10277856827577 380.0 M 90.0 14448.737982677349 L 335.5707349457142 380.0 "/>
            </g>
        </pattern>
    </defs>
    <metadata>
        <latexdraw:metadata>
            <latexdraw:latexIncludes/>
            <latexdraw:displayXScale>true</latexdraw:displayXScale>
            <latexdraw:displayYScale>true</latexdraw:displayYScale>
            <latexdraw:unit>CM</latexdraw:unit>
            <latexdraw:zoom>1.0</latexdraw:zoom>
            <latexdraw:magneticGridStyle>CUSTOMISED</latexdraw:magneticGridStyle>
            <latexdraw:gridGap>10</latexdraw:gridGap>
            <latexdraw:magneticGrid>true</latexdraw:magneticGrid>
            <latexdraw:version>3.3.8</latexdraw:version>
            <latexdraw:size>
                <latexdraw:width>1280</latexdraw:width>
                <latexdraw:height>732</latexdraw:height>
            </latexdraw:size>
            <latexdraw:position>
                <latexdraw:x>0.0</latexdraw:x>
                <latexdraw:y>23.0</latexdraw:y>
            </latexdraw:position>
        </latexdraw:metadata>
    </metadata>
</svg>
